solid ASCII
  facet normal -1.000000e+00 0.000000e+00 0.000000e+00
    outer loop
      vertex   2.250000e+01 5.000000e+01 4.600000e+00
      vertex   2.250000e+01 1.400000e+00 4.600000e+00
      vertex   2.250000e+01 5.000000e+01 5.000000e+00
    endloop
  endfacet
  facet normal -1.000000e+00 -0.000000e+00 0.000000e+00
    outer loop
      vertex   2.250000e+01 5.000000e+01 5.000000e+00
      vertex   2.250000e+01 1.400000e+00 4.600000e+00
      vertex   2.250000e+01 1.400000e+00 5.000000e+00
    endloop
  endfacet
  facet normal -1.000000e+00 0.000000e+00 0.000000e+00
    outer loop
      vertex   2.250000e+01 1.400000e+00 -4.600000e+00
      vertex   2.250000e+01 5.000000e+01 -4.600000e+00
      vertex   2.250000e+01 1.400000e+00 -5.000000e+00
    endloop
  endfacet
  facet normal -1.000000e+00 0.000000e+00 0.000000e+00
    outer loop
      vertex   2.250000e+01 1.400000e+00 -5.000000e+00
      vertex   2.250000e+01 5.000000e+01 -4.600000e+00
      vertex   2.250000e+01 5.000000e+01 -5.000000e+00
    endloop
  endfacet
  facet normal 1.000000e+00 -7.310110e-17 0.000000e+00
    outer loop
      vertex   1.750000e+01 1.400000e+00 4.600000e+00
      vertex   1.750000e+01 5.000000e+01 4.600000e+00
      vertex   1.750000e+01 1.400000e+00 5.000000e+00
    endloop
  endfacet
  facet normal 1.000000e+00 -0.000000e+00 8.881784e-15
    outer loop
      vertex   1.750000e+01 1.400000e+00 5.000000e+00
      vertex   1.750000e+01 5.000000e+01 4.600000e+00
      vertex   1.750000e+01 5.000000e+01 5.000000e+00
    endloop
  endfacet
  facet normal 1.000000e+00 0.000000e+00 0.000000e+00
    outer loop
      vertex   1.750000e+01 5.000000e+01 -4.600000e+00
      vertex   1.750000e+01 1.400000e+00 -4.600000e+00
      vertex   1.750000e+01 5.000000e+01 -5.000000e+00
    endloop
  endfacet
  facet normal 1.000000e+00 0.000000e+00 0.000000e+00
    outer loop
      vertex   1.750000e+01 5.000000e+01 -5.000000e+00
      vertex   1.750000e+01 1.400000e+00 -4.600000e+00
      vertex   1.750000e+01 1.400000e+00 -5.000000e+00
    endloop
  endfacet
  facet normal 0.000000e+00 0.000000e+00 1.000000e+00
    outer loop
      vertex   1.750000e+01 5.000000e+01 -4.600000e+00
      vertex   -2.460000e+01 5.000000e+01 -4.600000e+00
      vertex   1.750000e+01 1.400000e+00 -4.600000e+00
    endloop
  endfacet
  facet normal 0.000000e+00 0.000000e+00 1.000000e+00
    outer loop
      vertex   1.750000e+01 1.400000e+00 -4.600000e+00
      vertex   -2.460000e+01 5.000000e+01 -4.600000e+00
      vertex   -2.460000e+01 1.400000e+00 -4.600000e+00
    endloop
  endfacet
  facet normal 0.000000e+00 0.000000e+00 1.000000e+00
    outer loop
      vertex   2.250000e+01 1.400000e+00 -4.600000e+00
      vertex   2.460000e+01 1.400000e+00 -4.600000e+00
      vertex   2.250000e+01 5.000000e+01 -4.600000e+00
    endloop
  endfacet
  facet normal -0.000000e+00 0.000000e+00 1.000000e+00
    outer loop
      vertex   2.250000e+01 5.000000e+01 -4.600000e+00
      vertex   2.460000e+01 1.400000e+00 -4.600000e+00
      vertex   2.460000e+01 5.000000e+01 -4.600000e+00
    endloop
  endfacet
  facet normal -1.586033e-15 1.000000e+00 0.000000e+00
    outer loop
      vertex   2.460000e+01 1.400000e+00 4.600000e+00
      vertex   2.460000e+01 1.400000e+00 -4.600000e+00
      vertex   2.250000e+01 1.400000e+00 4.600000e+00
    endloop
  endfacet
  facet normal -1.586033e-15 1.000000e+00 0.000000e+00
    outer loop
      vertex   2.250000e+01 1.400000e+00 4.600000e+00
      vertex   2.460000e+01 1.400000e+00 -4.600000e+00
      vertex   2.250000e+01 1.400000e+00 -4.600000e+00
    endloop
  endfacet
  facet normal 0.000000e+00 1.000000e+00 0.000000e+00
    outer loop
      vertex   2.250000e+01 1.400000e+00 4.600000e+00
      vertex   2.250000e+01 1.400000e+00 -4.600000e+00
      vertex   1.750000e+01 1.400000e+00 4.600000e+00
    endloop
  endfacet
  facet normal 0.000000e+00 1.000000e+00 0.000000e+00
    outer loop
      vertex   1.750000e+01 1.400000e+00 4.600000e+00
      vertex   2.250000e+01 1.400000e+00 -4.600000e+00
      vertex   1.750000e+01 1.400000e+00 -4.600000e+00
    endloop
  endfacet
  facet normal 7.911328e-17 1.000000e+00 0.000000e+00
    outer loop
      vertex   1.750000e+01 1.400000e+00 4.600000e+00
      vertex   1.750000e+01 1.400000e+00 -4.600000e+00
      vertex   -2.460000e+01 1.400000e+00 4.600000e+00
    endloop
  endfacet
  facet normal 7.911328e-17 1.000000e+00 0.000000e+00
    outer loop
      vertex   -2.460000e+01 1.400000e+00 4.600000e+00
      vertex   1.750000e+01 1.400000e+00 -4.600000e+00
      vertex   -2.460000e+01 1.400000e+00 -4.600000e+00
    endloop
  endfacet
  facet normal 0.000000e+00 1.000000e+00 0.000000e+00
    outer loop
      vertex   2.250000e+01 1.400000e+00 -4.600000e+00
      vertex   2.250000e+01 1.400000e+00 -5.000000e+00
      vertex   1.750000e+01 1.400000e+00 -4.600000e+00
    endloop
  endfacet
  facet normal 0.000000e+00 1.000000e+00 0.000000e+00
    outer loop
      vertex   1.750000e+01 1.400000e+00 -4.600000e+00
      vertex   2.250000e+01 1.400000e+00 -5.000000e+00
      vertex   1.750000e+01 1.400000e+00 -5.000000e+00
    endloop
  endfacet
  facet normal 0.000000e+00 1.000000e+00 0.000000e+00
    outer loop
      vertex   1.750000e+01 1.400000e+00 4.600000e+00
      vertex   1.750000e+01 1.400000e+00 5.000000e+00
      vertex   2.250000e+01 1.400000e+00 4.600000e+00
    endloop
  endfacet
  facet normal 0.000000e+00 1.000000e+00 -0.000000e+00
    outer loop
      vertex   2.250000e+01 1.400000e+00 4.600000e+00
      vertex   1.750000e+01 1.400000e+00 5.000000e+00
      vertex   2.250000e+01 1.400000e+00 5.000000e+00
    endloop
  endfacet
  facet normal 0.000000e+00 0.000000e+00 -1.000000e+00
    outer loop
      vertex   1.750000e+01 1.400000e+00 4.600000e+00
      vertex   -2.460000e+01 1.400000e+00 4.600000e+00
      vertex   1.750000e+01 5.000000e+01 4.600000e+00
    endloop
  endfacet
  facet normal -0.000000e+00 0.000000e+00 -1.000000e+00
    outer loop
      vertex   1.750000e+01 5.000000e+01 4.600000e+00
      vertex   -2.460000e+01 1.400000e+00 4.600000e+00
      vertex   -2.460000e+01 5.000000e+01 4.600000e+00
    endloop
  endfacet
  facet normal 0.000000e+00 0.000000e+00 -1.000000e+00
    outer loop
      vertex   2.250000e+01 5.000000e+01 4.600000e+00
      vertex   2.460000e+01 5.000000e+01 4.600000e+00
      vertex   2.250000e+01 1.400000e+00 4.600000e+00
    endloop
  endfacet
  facet normal 0.000000e+00 0.000000e+00 -1.000000e+00
    outer loop
      vertex   2.250000e+01 1.400000e+00 4.600000e+00
      vertex   2.460000e+01 5.000000e+01 4.600000e+00
      vertex   2.460000e+01 1.400000e+00 4.600000e+00
    endloop
  endfacet
  facet normal 0.000000e+00 1.000000e+00 0.000000e+00
    outer loop
      vertex   1.750000e+01 5.000000e+01 -4.600000e+00
      vertex   1.750000e+01 5.000000e+01 -5.000000e+00
      vertex   -2.460000e+01 5.000000e+01 -4.600000e+00
    endloop
  endfacet
  facet normal 0.000000e+00 1.000000e+00 0.000000e+00
    outer loop
      vertex   -2.460000e+01 5.000000e+01 -4.600000e+00
      vertex   1.750000e+01 5.000000e+01 -5.000000e+00
      vertex   -2.500000e+01 5.000000e+01 -5.000000e+00
    endloop
  endfacet
  facet normal 0.000000e+00 1.000000e+00 0.000000e+00
    outer loop
      vertex   -2.460000e+01 5.000000e+01 -4.600000e+00
      vertex   -2.500000e+01 5.000000e+01 -5.000000e+00
      vertex   -2.500000e+01 5.000000e+01 5.000000e+00
    endloop
  endfacet
  facet normal 0.000000e+00 1.000000e+00 -0.000000e+00
    outer loop
      vertex   -2.460000e+01 5.000000e+01 -4.600000e+00
      vertex   -2.500000e+01 5.000000e+01 5.000000e+00
      vertex   -2.460000e+01 5.000000e+01 4.600000e+00
    endloop
  endfacet
  facet normal 0.000000e+00 1.000000e+00 -0.000000e+00
    outer loop
      vertex   -2.460000e+01 5.000000e+01 4.600000e+00
      vertex   -2.500000e+01 5.000000e+01 5.000000e+00
      vertex   1.750000e+01 5.000000e+01 5.000000e+00
    endloop
  endfacet
  facet normal 0.000000e+00 1.000000e+00 0.000000e+00
    outer loop
      vertex   -2.460000e+01 5.000000e+01 4.600000e+00
      vertex   1.750000e+01 5.000000e+01 5.000000e+00
      vertex   1.750000e+01 5.000000e+01 4.600000e+00
    endloop
  endfacet
  facet normal -0.000000e+00 1.000000e+00 0.000000e+00
    outer loop
      vertex   2.250000e+01 5.000000e+01 -4.600000e+00
      vertex   2.460000e+01 5.000000e+01 -4.600000e+00
      vertex   2.250000e+01 5.000000e+01 -5.000000e+00
    endloop
  endfacet
  facet normal 0.000000e+00 1.000000e+00 0.000000e+00
    outer loop
      vertex   2.250000e+01 5.000000e+01 -5.000000e+00
      vertex   2.460000e+01 5.000000e+01 -4.600000e+00
      vertex   2.500000e+01 5.000000e+01 -5.000000e+00
    endloop
  endfacet
  facet normal 0.000000e+00 1.000000e+00 0.000000e+00
    outer loop
      vertex   2.500000e+01 5.000000e+01 -5.000000e+00
      vertex   2.460000e+01 5.000000e+01 -4.600000e+00
      vertex   2.460000e+01 5.000000e+01 4.600000e+00
    endloop
  endfacet
  facet normal 0.000000e+00 1.000000e+00 -0.000000e+00
    outer loop
      vertex   2.500000e+01 5.000000e+01 -5.000000e+00
      vertex   2.460000e+01 5.000000e+01 4.600000e+00
      vertex   2.500000e+01 5.000000e+01 5.000000e+00
    endloop
  endfacet
  facet normal 0.000000e+00 1.000000e+00 0.000000e+00
    outer loop
      vertex   2.500000e+01 5.000000e+01 5.000000e+00
      vertex   2.460000e+01 5.000000e+01 4.600000e+00
      vertex   2.250000e+01 5.000000e+01 5.000000e+00
    endloop
  endfacet
  facet normal 0.000000e+00 1.000000e+00 0.000000e+00
    outer loop
      vertex   2.250000e+01 5.000000e+01 5.000000e+00
      vertex   2.460000e+01 5.000000e+01 4.600000e+00
      vertex   2.250000e+01 5.000000e+01 4.600000e+00
    endloop
  endfacet
  facet normal 1.000000e+00 0.000000e+00 -0.000000e+00
    outer loop
      vertex   -2.460000e+01 5.000000e+01 -4.600000e+00
      vertex   -2.460000e+01 5.000000e+01 4.600000e+00
      vertex   -2.460000e+01 1.400000e+00 -4.600000e+00
    endloop
  endfacet
  facet normal 1.000000e+00 0.000000e+00 0.000000e+00
    outer loop
      vertex   -2.460000e+01 1.400000e+00 -4.600000e+00
      vertex   -2.460000e+01 5.000000e+01 4.600000e+00
      vertex   -2.460000e+01 1.400000e+00 4.600000e+00
    endloop
  endfacet
  facet normal -1.000000e+00 -0.000000e+00 -0.000000e+00
    outer loop
      vertex   2.460000e+01 5.000000e+01 4.600000e+00
      vertex   2.460000e+01 5.000000e+01 -4.600000e+00
      vertex   2.460000e+01 1.400000e+00 4.600000e+00
    endloop
  endfacet
  facet normal -1.000000e+00 0.000000e+00 0.000000e+00
    outer loop
      vertex   2.460000e+01 1.400000e+00 4.600000e+00
      vertex   2.460000e+01 5.000000e+01 -4.600000e+00
      vertex   2.460000e+01 1.400000e+00 -4.600000e+00
    endloop
  endfacet
  facet normal 0.000000e+00 0.000000e+00 1.000000e+00
    outer loop
      vertex   -2.500000e+01 5.000000e+01 5.000000e+00
      vertex   -2.500000e+01 0.000000e+00 5.000000e+00
      vertex   1.750000e+01 1.400000e+00 5.000000e+00
    endloop
  endfacet
  facet normal 0.000000e+00 0.000000e+00 1.000000e+00
    outer loop
      vertex   1.750000e+01 1.400000e+00 5.000000e+00
      vertex   -2.500000e+01 0.000000e+00 5.000000e+00
      vertex   2.500000e+01 0.000000e+00 5.000000e+00
    endloop
  endfacet
  facet normal -0.000000e+00 0.000000e+00 1.000000e+00
    outer loop
      vertex   1.750000e+01 1.400000e+00 5.000000e+00
      vertex   2.500000e+01 0.000000e+00 5.000000e+00
      vertex   2.250000e+01 1.400000e+00 5.000000e+00
    endloop
  endfacet
  facet normal -0.000000e+00 0.000000e+00 1.000000e+00
    outer loop
      vertex   2.250000e+01 1.400000e+00 5.000000e+00
      vertex   2.500000e+01 0.000000e+00 5.000000e+00
      vertex   2.500000e+01 5.000000e+01 5.000000e+00
    endloop
  endfacet
  facet normal 0.000000e+00 0.000000e+00 1.000000e+00
    outer loop
      vertex   2.250000e+01 1.400000e+00 5.000000e+00
      vertex   2.500000e+01 5.000000e+01 5.000000e+00
      vertex   2.250000e+01 5.000000e+01 5.000000e+00
    endloop
  endfacet
  facet normal 0.000000e+00 -0.000000e+00 1.000000e+00
    outer loop
      vertex   1.750000e+01 1.400000e+00 5.000000e+00
      vertex   1.750000e+01 5.000000e+01 5.000000e+00
      vertex   -2.500000e+01 5.000000e+01 5.000000e+00
    endloop
  endfacet
  facet normal -1.000000e+00 0.000000e+00 0.000000e+00
    outer loop
      vertex   -2.500000e+01 0.000000e+00 -5.000000e+00
      vertex   -2.500000e+01 0.000000e+00 5.000000e+00
      vertex   -2.500000e+01 5.000000e+01 -5.000000e+00
    endloop
  endfacet
  facet normal -1.000000e+00 0.000000e+00 0.000000e+00
    outer loop
      vertex   -2.500000e+01 5.000000e+01 -5.000000e+00
      vertex   -2.500000e+01 0.000000e+00 5.000000e+00
      vertex   -2.500000e+01 5.000000e+01 5.000000e+00
    endloop
  endfacet
  facet normal 0.000000e+00 0.000000e+00 -1.000000e+00
    outer loop
      vertex   -2.500000e+01 0.000000e+00 -5.000000e+00
      vertex   1.750000e+01 1.400000e+00 -5.000000e+00
      vertex   2.500000e+01 0.000000e+00 -5.000000e+00
    endloop
  endfacet
  facet normal 0.000000e+00 0.000000e+00 -1.000000e+00
    outer loop
      vertex   2.500000e+01 0.000000e+00 -5.000000e+00
      vertex   1.750000e+01 1.400000e+00 -5.000000e+00
      vertex   2.250000e+01 1.400000e+00 -5.000000e+00
    endloop
  endfacet
  facet normal 0.000000e+00 0.000000e+00 -1.000000e+00
    outer loop
      vertex   2.500000e+01 0.000000e+00 -5.000000e+00
      vertex   2.250000e+01 1.400000e+00 -5.000000e+00
      vertex   2.500000e+01 5.000000e+01 -5.000000e+00
    endloop
  endfacet
  facet normal -0.000000e+00 0.000000e+00 -1.000000e+00
    outer loop
      vertex   2.500000e+01 5.000000e+01 -5.000000e+00
      vertex   2.250000e+01 1.400000e+00 -5.000000e+00
      vertex   2.250000e+01 5.000000e+01 -5.000000e+00
    endloop
  endfacet
  facet normal 0.000000e+00 0.000000e+00 -1.000000e+00
    outer loop
      vertex   -2.500000e+01 0.000000e+00 -5.000000e+00
      vertex   -2.500000e+01 5.000000e+01 -5.000000e+00
      vertex   1.750000e+01 1.400000e+00 -5.000000e+00
    endloop
  endfacet
  facet normal 0.000000e+00 0.000000e+00 -1.000000e+00
    outer loop
      vertex   1.750000e+01 1.400000e+00 -5.000000e+00
      vertex   -2.500000e+01 5.000000e+01 -5.000000e+00
      vertex   1.750000e+01 5.000000e+01 -5.000000e+00
    endloop
  endfacet
  facet normal 1.000000e+00 -0.000000e+00 0.000000e+00
    outer loop
      vertex   2.500000e+01 0.000000e+00 5.000000e+00
      vertex   2.500000e+01 0.000000e+00 -5.000000e+00
      vertex   2.500000e+01 5.000000e+01 5.000000e+00
    endloop
  endfacet
  facet normal 1.000000e+00 0.000000e+00 0.000000e+00
    outer loop
      vertex   2.500000e+01 5.000000e+01 5.000000e+00
      vertex   2.500000e+01 0.000000e+00 -5.000000e+00
      vertex   2.500000e+01 5.000000e+01 -5.000000e+00
    endloop
  endfacet
  facet normal -0.000000e+00 -1.000000e+00 -0.000000e+00
    outer loop
      vertex   2.500000e+01 0.000000e+00 5.000000e+00
      vertex   -2.500000e+01 0.000000e+00 5.000000e+00
      vertex   2.500000e+01 0.000000e+00 -5.000000e+00
    endloop
  endfacet
  facet normal 0.000000e+00 -1.000000e+00 0.000000e+00
    outer loop
      vertex   2.500000e+01 0.000000e+00 -5.000000e+00
      vertex   -2.500000e+01 0.000000e+00 5.000000e+00
      vertex   -2.500000e+01 0.000000e+00 -5.000000e+00
    endloop
  endfacet
endsolid
