solid ASCII
  facet normal -1.000000e+00 -0.000000e+00 -0.000000e+00
    outer loop
      vertex   2.250000e+01 5.000000e+01 -4.580000e+00
      vertex   2.250000e+01 5.000000e+01 -5.000000e+00
      vertex   2.250000e+01 1.420000e+00 -4.580000e+00
    endloop
  endfacet
  facet normal -1.000000e+00 0.000000e+00 -0.000000e+00
    outer loop
      vertex   2.250000e+01 1.420000e+00 -4.580000e+00
      vertex   2.250000e+01 5.000000e+01 -5.000000e+00
      vertex   2.250000e+01 1.400000e+00 -5.000000e+00
    endloop
  endfacet
  facet normal -1.000000e+00 -0.000000e+00 0.000000e+00
    outer loop
      vertex   2.250000e+01 1.420000e+00 -4.580000e+00
      vertex   2.250000e+01 1.400000e+00 -5.000000e+00
      vertex   2.250000e+01 1.400000e+00 5.000000e+00
    endloop
  endfacet
  facet normal -1.000000e+00 0.000000e+00 0.000000e+00
    outer loop
      vertex   2.250000e+01 1.420000e+00 -4.580000e+00
      vertex   2.250000e+01 1.400000e+00 5.000000e+00
      vertex   2.250000e+01 1.420000e+00 4.580000e+00
    endloop
  endfacet
  facet normal -1.000000e+00 0.000000e+00 0.000000e+00
    outer loop
      vertex   2.250000e+01 1.420000e+00 4.580000e+00
      vertex   2.250000e+01 1.400000e+00 5.000000e+00
      vertex   2.250000e+01 5.000000e+01 5.000000e+00
    endloop
  endfacet
  facet normal -1.000000e+00 0.000000e+00 0.000000e+00
    outer loop
      vertex   2.250000e+01 1.420000e+00 4.580000e+00
      vertex   2.250000e+01 5.000000e+01 5.000000e+00
      vertex   2.250000e+01 5.000000e+01 4.580000e+00
    endloop
  endfacet
  facet normal 1.000000e+00 0.000000e+00 0.000000e+00
    outer loop
      vertex   1.750000e+01 5.000000e+01 -4.580000e+00
      vertex   1.750000e+01 1.420000e+00 -4.580000e+00
      vertex   1.750000e+01 5.000000e+01 -5.000000e+00
    endloop
  endfacet
  facet normal 1.000000e+00 0.000000e+00 0.000000e+00
    outer loop
      vertex   1.750000e+01 5.000000e+01 -5.000000e+00
      vertex   1.750000e+01 1.420000e+00 -4.580000e+00
      vertex   1.750000e+01 1.400000e+00 -5.000000e+00
    endloop
  endfacet
  facet normal 1.000000e+00 8.144868e-15 -3.878508e-16
    outer loop
      vertex   1.750000e+01 1.400000e+00 -5.000000e+00
      vertex   1.750000e+01 1.420000e+00 -4.580000e+00
      vertex   1.750000e+01 1.420000e+00 4.580000e+00
    endloop
  endfacet
  facet normal 1.000000e+00 -1.776357e-13 0.000000e+00
    outer loop
      vertex   1.750000e+01 1.400000e+00 -5.000000e+00
      vertex   1.750000e+01 1.420000e+00 4.580000e+00
      vertex   1.750000e+01 1.400000e+00 5.000000e+00
    endloop
  endfacet
  facet normal 1.000000e+00 -0.000000e+00 8.458842e-15
    outer loop
      vertex   1.750000e+01 1.400000e+00 5.000000e+00
      vertex   1.750000e+01 1.420000e+00 4.580000e+00
      vertex   1.750000e+01 5.000000e+01 5.000000e+00
    endloop
  endfacet
  facet normal 1.000000e+00 0.000000e+00 8.458842e-15
    outer loop
      vertex   1.750000e+01 5.000000e+01 5.000000e+00
      vertex   1.750000e+01 1.420000e+00 4.580000e+00
      vertex   1.750000e+01 5.000000e+01 4.580000e+00
    endloop
  endfacet
  facet normal 0.000000e+00 1.000000e+00 0.000000e+00
    outer loop
      vertex   2.250000e+01 1.400000e+00 5.000000e+00
      vertex   2.250000e+01 1.400000e+00 -5.000000e+00
      vertex   1.750000e+01 1.400000e+00 5.000000e+00
    endloop
  endfacet
  facet normal 0.000000e+00 1.000000e+00 0.000000e+00
    outer loop
      vertex   1.750000e+01 1.400000e+00 5.000000e+00
      vertex   2.250000e+01 1.400000e+00 -5.000000e+00
      vertex   1.750000e+01 1.400000e+00 -5.000000e+00
    endloop
  endfacet
  facet normal 0.000000e+00 0.000000e+00 1.000000e+00
    outer loop
      vertex   1.750000e+01 5.000000e+01 -4.580000e+00
      vertex   -2.458000e+01 5.000000e+01 -4.580000e+00
      vertex   1.750000e+01 1.420000e+00 -4.580000e+00
    endloop
  endfacet
  facet normal 0.000000e+00 0.000000e+00 1.000000e+00
    outer loop
      vertex   1.750000e+01 1.420000e+00 -4.580000e+00
      vertex   -2.458000e+01 5.000000e+01 -4.580000e+00
      vertex   -2.458000e+01 1.420000e+00 -4.580000e+00
    endloop
  endfacet
  facet normal 0.000000e+00 0.000000e+00 1.000000e+00
    outer loop
      vertex   2.250000e+01 1.420000e+00 -4.580000e+00
      vertex   2.458000e+01 1.420000e+00 -4.580000e+00
      vertex   2.250000e+01 5.000000e+01 -4.580000e+00
    endloop
  endfacet
  facet normal -0.000000e+00 0.000000e+00 1.000000e+00
    outer loop
      vertex   2.250000e+01 5.000000e+01 -4.580000e+00
      vertex   2.458000e+01 1.420000e+00 -4.580000e+00
      vertex   2.458000e+01 5.000000e+01 -4.580000e+00
    endloop
  endfacet
  facet normal 0.000000e+00 1.000000e+00 0.000000e+00
    outer loop
      vertex   1.750000e+01 1.420000e+00 4.580000e+00
      vertex   1.750000e+01 1.420000e+00 -4.580000e+00
      vertex   -2.458000e+01 1.420000e+00 4.580000e+00
    endloop
  endfacet
  facet normal 0.000000e+00 1.000000e+00 0.000000e+00
    outer loop
      vertex   -2.458000e+01 1.420000e+00 4.580000e+00
      vertex   1.750000e+01 1.420000e+00 -4.580000e+00
      vertex   -2.458000e+01 1.420000e+00 -4.580000e+00
    endloop
  endfacet
  facet normal 0.000000e+00 1.000000e+00 0.000000e+00
    outer loop
      vertex   2.250000e+01 1.420000e+00 -4.580000e+00
      vertex   2.250000e+01 1.420000e+00 4.580000e+00
      vertex   2.458000e+01 1.420000e+00 -4.580000e+00
    endloop
  endfacet
  facet normal 0.000000e+00 1.000000e+00 -0.000000e+00
    outer loop
      vertex   2.458000e+01 1.420000e+00 -4.580000e+00
      vertex   2.250000e+01 1.420000e+00 4.580000e+00
      vertex   2.458000e+01 1.420000e+00 4.580000e+00
    endloop
  endfacet
  facet normal 0.000000e+00 0.000000e+00 -1.000000e+00
    outer loop
      vertex   1.750000e+01 1.420000e+00 4.580000e+00
      vertex   -2.458000e+01 1.420000e+00 4.580000e+00
      vertex   1.750000e+01 5.000000e+01 4.580000e+00
    endloop
  endfacet
  facet normal -0.000000e+00 0.000000e+00 -1.000000e+00
    outer loop
      vertex   1.750000e+01 5.000000e+01 4.580000e+00
      vertex   -2.458000e+01 1.420000e+00 4.580000e+00
      vertex   -2.458000e+01 5.000000e+01 4.580000e+00
    endloop
  endfacet
  facet normal 0.000000e+00 0.000000e+00 -1.000000e+00
    outer loop
      vertex   2.250000e+01 5.000000e+01 4.580000e+00
      vertex   2.458000e+01 5.000000e+01 4.580000e+00
      vertex   2.250000e+01 1.420000e+00 4.580000e+00
    endloop
  endfacet
  facet normal 0.000000e+00 0.000000e+00 -1.000000e+00
    outer loop
      vertex   2.250000e+01 1.420000e+00 4.580000e+00
      vertex   2.458000e+01 5.000000e+01 4.580000e+00
      vertex   2.458000e+01 1.420000e+00 4.580000e+00
    endloop
  endfacet
  facet normal 0.000000e+00 1.000000e+00 0.000000e+00
    outer loop
      vertex   1.750000e+01 5.000000e+01 -4.580000e+00
      vertex   1.750000e+01 5.000000e+01 -5.000000e+00
      vertex   -2.458000e+01 5.000000e+01 -4.580000e+00
    endloop
  endfacet
  facet normal 0.000000e+00 1.000000e+00 0.000000e+00
    outer loop
      vertex   -2.458000e+01 5.000000e+01 -4.580000e+00
      vertex   1.750000e+01 5.000000e+01 -5.000000e+00
      vertex   -2.500000e+01 5.000000e+01 -5.000000e+00
    endloop
  endfacet
  facet normal 0.000000e+00 1.000000e+00 0.000000e+00
    outer loop
      vertex   -2.458000e+01 5.000000e+01 -4.580000e+00
      vertex   -2.500000e+01 5.000000e+01 -5.000000e+00
      vertex   -2.500000e+01 5.000000e+01 5.000000e+00
    endloop
  endfacet
  facet normal 0.000000e+00 1.000000e+00 -0.000000e+00
    outer loop
      vertex   -2.458000e+01 5.000000e+01 -4.580000e+00
      vertex   -2.500000e+01 5.000000e+01 5.000000e+00
      vertex   -2.458000e+01 5.000000e+01 4.580000e+00
    endloop
  endfacet
  facet normal 0.000000e+00 1.000000e+00 -0.000000e+00
    outer loop
      vertex   -2.458000e+01 5.000000e+01 4.580000e+00
      vertex   -2.500000e+01 5.000000e+01 5.000000e+00
      vertex   1.750000e+01 5.000000e+01 5.000000e+00
    endloop
  endfacet
  facet normal 0.000000e+00 1.000000e+00 0.000000e+00
    outer loop
      vertex   -2.458000e+01 5.000000e+01 4.580000e+00
      vertex   1.750000e+01 5.000000e+01 5.000000e+00
      vertex   1.750000e+01 5.000000e+01 4.580000e+00
    endloop
  endfacet
  facet normal -0.000000e+00 1.000000e+00 0.000000e+00
    outer loop
      vertex   2.250000e+01 5.000000e+01 -4.580000e+00
      vertex   2.458000e+01 5.000000e+01 -4.580000e+00
      vertex   2.250000e+01 5.000000e+01 -5.000000e+00
    endloop
  endfacet
  facet normal 0.000000e+00 1.000000e+00 0.000000e+00
    outer loop
      vertex   2.250000e+01 5.000000e+01 -5.000000e+00
      vertex   2.458000e+01 5.000000e+01 -4.580000e+00
      vertex   2.500000e+01 5.000000e+01 -5.000000e+00
    endloop
  endfacet
  facet normal 0.000000e+00 1.000000e+00 0.000000e+00
    outer loop
      vertex   2.500000e+01 5.000000e+01 -5.000000e+00
      vertex   2.458000e+01 5.000000e+01 -4.580000e+00
      vertex   2.458000e+01 5.000000e+01 4.580000e+00
    endloop
  endfacet
  facet normal 0.000000e+00 1.000000e+00 -0.000000e+00
    outer loop
      vertex   2.500000e+01 5.000000e+01 -5.000000e+00
      vertex   2.458000e+01 5.000000e+01 4.580000e+00
      vertex   2.500000e+01 5.000000e+01 5.000000e+00
    endloop
  endfacet
  facet normal 0.000000e+00 1.000000e+00 0.000000e+00
    outer loop
      vertex   2.500000e+01 5.000000e+01 5.000000e+00
      vertex   2.458000e+01 5.000000e+01 4.580000e+00
      vertex   2.250000e+01 5.000000e+01 5.000000e+00
    endloop
  endfacet
  facet normal 0.000000e+00 1.000000e+00 0.000000e+00
    outer loop
      vertex   2.250000e+01 5.000000e+01 5.000000e+00
      vertex   2.458000e+01 5.000000e+01 4.580000e+00
      vertex   2.250000e+01 5.000000e+01 4.580000e+00
    endloop
  endfacet
  facet normal 1.000000e+00 1.462624e-16 -0.000000e+00
    outer loop
      vertex   -2.458000e+01 5.000000e+01 -4.580000e+00
      vertex   -2.458000e+01 5.000000e+01 4.580000e+00
      vertex   -2.458000e+01 1.420000e+00 -4.580000e+00
    endloop
  endfacet
  facet normal 1.000000e+00 1.462624e-16 -0.000000e+00
    outer loop
      vertex   -2.458000e+01 1.420000e+00 -4.580000e+00
      vertex   -2.458000e+01 5.000000e+01 4.580000e+00
      vertex   -2.458000e+01 1.420000e+00 4.580000e+00
    endloop
  endfacet
  facet normal -1.000000e+00 1.462624e-16 0.000000e+00
    outer loop
      vertex   2.458000e+01 5.000000e+01 4.580000e+00
      vertex   2.458000e+01 5.000000e+01 -4.580000e+00
      vertex   2.458000e+01 1.420000e+00 4.580000e+00
    endloop
  endfacet
  facet normal -1.000000e+00 1.462624e-16 0.000000e+00
    outer loop
      vertex   2.458000e+01 1.420000e+00 4.580000e+00
      vertex   2.458000e+01 5.000000e+01 -4.580000e+00
      vertex   2.458000e+01 1.420000e+00 -4.580000e+00
    endloop
  endfacet
  facet normal 0.000000e+00 0.000000e+00 1.000000e+00
    outer loop
      vertex   -2.500000e+01 5.000000e+01 5.000000e+00
      vertex   -2.500000e+01 0.000000e+00 5.000000e+00
      vertex   1.750000e+01 1.400000e+00 5.000000e+00
    endloop
  endfacet
  facet normal 0.000000e+00 0.000000e+00 1.000000e+00
    outer loop
      vertex   1.750000e+01 1.400000e+00 5.000000e+00
      vertex   -2.500000e+01 0.000000e+00 5.000000e+00
      vertex   2.500000e+01 0.000000e+00 5.000000e+00
    endloop
  endfacet
  facet normal -0.000000e+00 0.000000e+00 1.000000e+00
    outer loop
      vertex   1.750000e+01 1.400000e+00 5.000000e+00
      vertex   2.500000e+01 0.000000e+00 5.000000e+00
      vertex   2.250000e+01 1.400000e+00 5.000000e+00
    endloop
  endfacet
  facet normal -0.000000e+00 0.000000e+00 1.000000e+00
    outer loop
      vertex   2.250000e+01 1.400000e+00 5.000000e+00
      vertex   2.500000e+01 0.000000e+00 5.000000e+00
      vertex   2.500000e+01 5.000000e+01 5.000000e+00
    endloop
  endfacet
  facet normal 0.000000e+00 0.000000e+00 1.000000e+00
    outer loop
      vertex   2.250000e+01 1.400000e+00 5.000000e+00
      vertex   2.500000e+01 5.000000e+01 5.000000e+00
      vertex   2.250000e+01 5.000000e+01 5.000000e+00
    endloop
  endfacet
  facet normal 0.000000e+00 -0.000000e+00 1.000000e+00
    outer loop
      vertex   1.750000e+01 1.400000e+00 5.000000e+00
      vertex   1.750000e+01 5.000000e+01 5.000000e+00
      vertex   -2.500000e+01 5.000000e+01 5.000000e+00
    endloop
  endfacet
  facet normal -1.000000e+00 0.000000e+00 0.000000e+00
    outer loop
      vertex   -2.500000e+01 0.000000e+00 -5.000000e+00
      vertex   -2.500000e+01 0.000000e+00 5.000000e+00
      vertex   -2.500000e+01 5.000000e+01 -5.000000e+00
    endloop
  endfacet
  facet normal -1.000000e+00 0.000000e+00 0.000000e+00
    outer loop
      vertex   -2.500000e+01 5.000000e+01 -5.000000e+00
      vertex   -2.500000e+01 0.000000e+00 5.000000e+00
      vertex   -2.500000e+01 5.000000e+01 5.000000e+00
    endloop
  endfacet
  facet normal 0.000000e+00 0.000000e+00 -1.000000e+00
    outer loop
      vertex   -2.500000e+01 0.000000e+00 -5.000000e+00
      vertex   1.750000e+01 1.400000e+00 -5.000000e+00
      vertex   2.500000e+01 0.000000e+00 -5.000000e+00
    endloop
  endfacet
  facet normal 0.000000e+00 0.000000e+00 -1.000000e+00
    outer loop
      vertex   2.500000e+01 0.000000e+00 -5.000000e+00
      vertex   1.750000e+01 1.400000e+00 -5.000000e+00
      vertex   2.250000e+01 1.400000e+00 -5.000000e+00
    endloop
  endfacet
  facet normal 0.000000e+00 0.000000e+00 -1.000000e+00
    outer loop
      vertex   2.500000e+01 0.000000e+00 -5.000000e+00
      vertex   2.250000e+01 1.400000e+00 -5.000000e+00
      vertex   2.500000e+01 5.000000e+01 -5.000000e+00
    endloop
  endfacet
  facet normal -0.000000e+00 0.000000e+00 -1.000000e+00
    outer loop
      vertex   2.500000e+01 5.000000e+01 -5.000000e+00
      vertex   2.250000e+01 1.400000e+00 -5.000000e+00
      vertex   2.250000e+01 5.000000e+01 -5.000000e+00
    endloop
  endfacet
  facet normal 0.000000e+00 0.000000e+00 -1.000000e+00
    outer loop
      vertex   -2.500000e+01 0.000000e+00 -5.000000e+00
      vertex   -2.500000e+01 5.000000e+01 -5.000000e+00
      vertex   1.750000e+01 1.400000e+00 -5.000000e+00
    endloop
  endfacet
  facet normal 0.000000e+00 0.000000e+00 -1.000000e+00
    outer loop
      vertex   1.750000e+01 1.400000e+00 -5.000000e+00
      vertex   -2.500000e+01 5.000000e+01 -5.000000e+00
      vertex   1.750000e+01 5.000000e+01 -5.000000e+00
    endloop
  endfacet
  facet normal 1.000000e+00 -0.000000e+00 0.000000e+00
    outer loop
      vertex   2.500000e+01 0.000000e+00 5.000000e+00
      vertex   2.500000e+01 0.000000e+00 -5.000000e+00
      vertex   2.500000e+01 5.000000e+01 5.000000e+00
    endloop
  endfacet
  facet normal 1.000000e+00 0.000000e+00 0.000000e+00
    outer loop
      vertex   2.500000e+01 5.000000e+01 5.000000e+00
      vertex   2.500000e+01 0.000000e+00 -5.000000e+00
      vertex   2.500000e+01 5.000000e+01 -5.000000e+00
    endloop
  endfacet
  facet normal -0.000000e+00 -1.000000e+00 -0.000000e+00
    outer loop
      vertex   2.500000e+01 0.000000e+00 5.000000e+00
      vertex   -2.500000e+01 0.000000e+00 5.000000e+00
      vertex   2.500000e+01 0.000000e+00 -5.000000e+00
    endloop
  endfacet
  facet normal 0.000000e+00 -1.000000e+00 0.000000e+00
    outer loop
      vertex   2.500000e+01 0.000000e+00 -5.000000e+00
      vertex   -2.500000e+01 0.000000e+00 5.000000e+00
      vertex   -2.500000e+01 0.000000e+00 -5.000000e+00
    endloop
  endfacet
endsolid
